# xmcd
#
# Track frame offsets: 
#        150
#        13427
#        26232
#        41025
#        56815
#        69390
#        82525
#        92122
#        104955
#        118730
#        134047
#        149602
#        163915
#
# Disc length: 2386 seconds
#
# Revision: 2
# Processed by: cddbd v1.5.2PL0 Copyright (c) Steve Scherf et al.
# Submitted via: ExactAudioCopy v0.99pb5
#
DISCID=ca09500d
DTITLE=Μελίνα Κανά - Αρώματα αντί για ναφθαλίνη
DYEAR=1995
DGENRE=Folk
TTITLE0=Κρατάς στα χέρια σου κλειδί
TTITLE1=Ο χάρτης
TTITLE2=Πολύγυρος
TTITLE3=Μυστικό
TTITLE4=Έχω ένα φίλο
TTITLE5=Αργά το βράδυ
TTITLE6=Στον ίσκιο της αγάπης σου
TTITLE7=Παράξενα αρώματα
TTITLE8=Μεθώ και ταλαντεύομαι
TTITLE9=Εγκατάλειψη
TTITLE10=Λόγια, τσιγάρα
TTITLE11=Του Χριστάρα
TTITLE12=Τα χίλια λάθη της καρδιάς
EXTD=
EXTT0=
EXTT1=
EXTT2=
EXTT3=
EXTT4=
EXTT5=
EXTT6=
EXTT7=
EXTT8=
EXTT9=
EXTT10=
EXTT11=
EXTT12=
PLAYORDER=
